<svg width="377" height="371" viewBox="0 0 377 371" fill="none" xmlns="http://www.w3.org/2000/svg">
<path fill-rule="evenodd" clip-rule="evenodd" d="M116.887 345.12C106.585 341.551 97.2199 336.199 87.8546 330.847C80.9493 326.901 74.5532 321.985 68.2908 317.171C66.0598 315.456 63.8458 313.755 61.6317 312.114C45.7107 297.842 31.6627 280.893 21.3609 263.053C16.6782 254.132 11.9956 244.32 8.24945 234.508C4.7898 225.446 2.9277 215.623 1.18776 206.445L1.18701 206.441C1.04319 205.682 0.900194 204.928 0.757202 204.179V171.174C0.757202 168.376 1.01315 165.578 1.25744 162.907C1.48044 160.469 1.69373 158.138 1.69373 156.009L1.69378 156.009C2.63029 150.657 3.56681 145.305 4.50333 140.845C4.97159 138.169 5.67399 135.715 6.37639 133.262C7.07879 130.809 7.78119 128.356 8.24945 125.68C10.1225 120.328 11.9956 115.868 13.8686 111.408C17.6148 101.595 23.234 92.675 28.8531 83.7547C40.0915 65.9141 55.076 50.7496 71.9336 38.2612C88.7911 25.7727 108.458 15.9604 129.062 9.7162C131.672 8.7217 134.574 8.00438 137.604 7.25522C140.009 6.66045 142.496 6.04561 144.983 5.25605C147.793 4.81003 150.368 4.36402 152.944 3.918C155.519 3.47199 158.094 3.02597 160.904 2.57996C163.714 2.13394 166.289 1.91094 168.865 1.68793C171.44 1.46492 174.015 1.24191 176.825 0.795898H185.254H189H192.746H196.492C104.712 4.36402 32.5993 76.6185 32.5993 164.929C32.5993 180.094 34.4723 195.258 39.155 209.531C39.6232 211.761 40.3256 213.991 41.028 216.221C41.7304 218.451 42.4328 220.681 42.9011 222.911C45.7107 230.94 49.4568 238.968 54.1395 246.104C62.5683 261.269 73.8066 274.649 87.8546 285.354L91.6007 288.922C97.2199 293.382 102.839 296.95 108.458 300.518C114.106 303.88 120.286 306.735 126.195 309.466L126.201 309.468C128.129 310.359 130.029 311.237 131.872 312.114C133.445 312.614 135.093 313.184 136.772 313.765L136.773 313.765C141.09 315.258 145.62 316.824 149.666 317.467C155.285 315.683 160.904 313.006 168.396 308.546C186.763 293.482 210.967 296.684 234.799 299.837C254.715 302.471 274.371 305.072 290.145 296.95C292.018 296.058 293.891 295.166 296.701 296.058C296.825 296.117 296.953 296.176 297.083 296.235L297.219 296.297C299.043 297.129 301.301 298.159 300.447 301.41V303.194C293.891 329.063 261.113 329.063 239.573 326.387C237.816 326.148 236.194 325.909 234.689 325.687L234.688 325.687C230.575 325.081 227.33 324.603 224.588 324.603C218.032 323.711 213.35 326.387 214.286 329.955C214.286 333.523 218.969 337.983 230.207 340.659C276.015 348.545 311.09 319.875 336.391 299.195C354.023 284.783 366.908 274.251 375.37 282.677C383.798 295.166 284.526 423.618 116.887 345.12ZM335.75 272C352.625 248.03 362 218.735 362 186.775C362 103.326 294.5 35.857 212 35.857C129.5 35.857 62 103.326 62 186.775C62 218.735 71.375 248.03 88.25 272C62.9375 243.592 47 207.194 47 168.133C47 81.1325 121.063 10.9999 212 10.9999C302.938 10.9999 377 81.1325 377 167.245C377 207.194 362 243.592 335.75 272ZM251.42 147.932H293.622C298.311 147.932 302.062 150.591 303 155.907V201.093C303 205.523 299.249 209.067 294.56 209.067H252.358C247.668 209.067 243.917 212.611 243.917 217.041V256.026C243.917 260.456 240.166 264 235.477 264H187.648C182.959 264 179.207 260.456 179.207 256.026V217.041C179.207 212.611 175.456 209.067 170.767 209.067H130.44C125.751 209.067 122 205.523 122 201.093V155.907C122 151.477 125.751 147.932 130.44 147.932H170.767C175.456 147.932 179.207 144.388 179.207 139.958V100.974C179.207 96.5439 182.959 92.9999 187.648 92.9999H234.539C239.228 92.9999 242.979 96.5439 242.979 100.974V139.958C242.979 144.388 246.731 147.932 251.42 147.932Z" fill="url(#paint0_linear)" fill-opacity="0.2"/>
<defs>
<linearGradient id="paint0_linear" x1="346.255" y1="364.45" x2="-3.60133" y2="-95.6315" gradientUnits="userSpaceOnUse">
<stop stop-color="#38A762"/>
<stop offset="1" stop-color="#3FA1D5"/>
</linearGradient>
</defs>
</svg>
