<svg width="399" height="81" viewBox="0 0 399 81" fill="none" xmlns="http://www.w3.org/2000/svg">
<g clip-path="url(#clip0)">
<path d="M24.1381 75.5351C21.9968 74.7544 20.0502 73.5833 18.1036 72.4122C16.157 71.2411 14.405 69.6797 12.653 68.3134C9.34379 65.1905 6.42386 61.4821 4.28257 57.5784C3.30926 55.6266 2.33595 53.4796 1.5573 51.3327C0.778649 49.1857 0.389325 46.8435 0 44.6965C0 42.1592 0 39.817 0 37.4748C0 36.3037 0.194662 35.1327 0.194662 34.1568C0.389325 32.9857 0.583987 31.8146 0.778649 30.8387C0.973311 29.6676 1.36264 28.6917 1.5573 27.5206C1.94662 26.3495 2.33595 25.3736 2.72527 24.3977C3.50392 22.2507 4.67189 20.2989 5.83987 18.3471C8.17582 14.4435 11.2904 11.1254 14.7943 8.3929C18.2983 5.66037 22.3862 3.51338 26.6687 2.14712C27.642 1.75676 28.81 1.56158 29.978 1.17122C31.146 0.976035 32.1193 0.780855 33.2873 0.585674C34.4552 0.390493 35.4285 0.390493 36.5965 0.195312C37.1805 0.195312 37.7645 0.195312 38.3485 0.195312C38.5431 0.195312 38.9325 0.195312 39.1271 0.195312H39.9058C40.1004 0.195312 40.2951 0.195312 40.6844 0.195312C21.6075 0.976035 6.61852 16.7857 6.61852 36.1086C6.61852 39.4266 7.00784 42.7447 7.98115 45.8676C8.17582 46.8435 8.56514 47.8194 8.7598 48.7953C9.34379 50.5519 10.1224 52.3086 11.0957 53.87C12.8477 57.1881 15.1837 60.1158 18.1036 62.458C18.2983 62.6531 18.6876 63.0435 18.8822 63.2387C20.0502 64.2146 21.2182 64.9953 22.3862 65.776C23.9435 66.7519 25.6954 67.5327 27.2527 68.3134C28.4207 68.7038 29.7833 69.2893 30.9513 69.4845C32.1193 69.0941 33.2872 68.5086 34.8445 67.5327C41.8524 61.4821 52.9481 68.8989 60.1506 64.9953C60.54 64.8001 60.9293 64.605 61.5133 64.8001C61.9026 64.9953 62.4866 65.1905 62.2919 65.9712C62.2919 66.1664 62.2919 66.3616 62.2919 66.3616C60.9293 72.0218 54.1161 72.0218 49.6389 71.4363C48.2762 71.2411 47.3029 71.0459 46.5243 71.0459C45.1616 70.8507 44.1883 71.4363 44.383 72.217C44.383 72.9977 45.3563 73.9736 47.6923 74.5592C63.8492 77.4869 73.5823 57.3833 77.8649 61.8724C79.6169 64.6049 58.9827 92.711 24.1381 75.5351Z" fill="url(#paint0_linear)"/>
<path d="M69.6891 59.5301C73.1931 54.2602 75.1397 47.8193 75.1397 40.7928C75.1397 22.4458 61.124 7.61203 43.9937 7.61203C26.8634 7.61203 12.8478 22.4458 12.8478 40.7928C12.8478 47.8193 14.7944 54.2602 18.2983 59.5301C13.0424 53.2843 9.73315 45.2819 9.73315 36.694C9.73315 17.5662 25.1115 2.14697 43.9937 2.14697C62.876 2.14697 78.2543 17.5663 78.2543 36.4988C78.2543 45.2819 75.1397 53.2843 69.6891 59.5301Z" fill="url(#paint1_linear)"/>
<path d="M60.9293 32.2052H52.1695C51.1962 32.2052 50.4176 31.4245 50.4176 30.4486V21.8606C50.4176 20.8847 49.6389 20.104 48.6656 20.104H38.9325C37.9592 20.104 37.1806 20.8847 37.1806 21.8606V30.4486C37.1806 31.4245 36.4019 32.2052 35.4286 32.2052H27.0581C26.0848 32.2052 25.3062 32.9859 25.3062 33.9618V43.9161C25.3062 44.892 26.0848 45.6727 27.0581 45.6727H35.4286C36.4019 45.6727 37.1806 46.4534 37.1806 47.4293V56.0173C37.1806 56.9932 37.9592 57.7739 38.9325 57.7739C41.4631 57.7739 46.3297 57.7739 48.8603 57.7739C49.8336 57.7739 50.6122 56.9932 50.6122 56.0173V47.4293C50.6122 46.4534 51.3909 45.6727 52.3642 45.6727H61.124C62.0973 45.6727 62.876 44.892 62.876 43.9161V33.9618C62.6813 32.7908 61.9027 32.2052 60.9293 32.2052Z" fill="url(#paint2_linear)"/>
</g>
<path d="M97.8846 59.8337H103.584L103.994 53.8477H121.952V59.8337H127.241L128.061 48.1487H124.617V25.1477H103.748V28.5097C103.748 38.3087 102.723 43.1877 100.591 48.1487H97.8846V59.8337ZM118.303 30.8467V48.1487H107.233C108.873 44.1717 109.816 39.8257 109.816 33.7577V30.8467H118.303ZM132.469 53.8477H154.322V48.2307H138.742V42.2037H152.272V36.5867H138.742V30.7647H154.117V25.1477H132.469V53.8477ZM170.145 24.6557C164.692 24.6557 161.248 26.5827 158.583 29.3707L161.904 33.3887C163.831 31.4207 166.127 30.2317 169.653 30.2317C172.4 30.2317 174.286 31.4207 174.286 33.4297C174.286 35.6027 172.482 36.7507 169.161 36.7507H165.922V41.9987H169.243C172.523 41.9987 174.942 42.9827 174.942 45.3607C174.942 47.5747 172.769 48.8047 170.104 48.8047C166.373 48.8047 163.298 47.4517 160.961 45.1557L157.599 49.5427C160.674 52.6587 164.323 54.3397 170.35 54.3397C177.033 54.3397 181.256 50.6907 181.256 45.7297C181.256 42.0807 178.96 39.9487 175.885 38.9647C178.427 37.8577 180.518 35.9307 180.518 32.3637C180.518 27.8947 176.295 24.6557 170.145 24.6557ZM211.485 25.1477H205.622L192.994 43.9667V25.1477H186.762V53.8477H192.707L205.253 35.0287V53.8477H211.485V25.1477ZM218.393 53.8477H224.707V42.3267H236.351V53.8477H242.665V25.1477H236.351V36.5047H224.707V25.1477H218.393V53.8477ZM256.227 53.8477H262.541V30.9697H271.274V25.1477H247.494V30.9697H256.227V53.8477ZM276.13 53.8477H297.983V48.2307H282.403V42.2037H295.933V36.5867H282.403V30.7647H297.778V25.1477H276.13V53.8477ZM303.596 53.8477H309.91V45.0737L313.231 41.6297L322.128 53.8477H329.713L317.495 37.3247L329.18 25.1477H321.554L309.91 37.6937V25.1477H303.596V53.8477ZM346.994 54.3397C352.529 54.3397 355.809 52.6177 358.761 49.4607L354.743 45.1557C352.488 47.2057 350.479 48.5177 347.199 48.5177C342.279 48.5177 338.876 44.4177 338.876 39.4977C338.876 34.4957 342.361 30.4777 347.199 30.4777C350.479 30.4777 352.365 31.6667 354.579 33.6757L358.351 29.3297C355.686 26.7057 352.652 24.6557 347.24 24.6557C338.425 24.6557 332.275 31.3387 332.275 39.4977C332.275 47.8207 338.548 54.3397 346.994 54.3397Z" fill="#3AA48C"/>
<defs>
<linearGradient id="paint0_linear" x1="10.3109" y1="-6.44396" x2="54.6237" y2="87.982" gradientUnits="userSpaceOnUse">
<stop offset="0.0195531" stop-color="#3FA1D5"/>
<stop offset="0.4839" stop-color="#31A666"/>
<stop offset="1" stop-color="#D8D70C"/>
</linearGradient>
<linearGradient id="paint1_linear" x1="9.71797" y1="30.8235" x2="78.3296" y2="30.8235" gradientUnits="userSpaceOnUse">
<stop offset="0.00905059" stop-color="#31A666"/>
<stop offset="1" stop-color="#D8D70C"/>
</linearGradient>
<linearGradient id="paint2_linear" x1="61.824" y1="62.1354" x2="18.4836" y2="5.51634" gradientUnits="userSpaceOnUse">
<stop stop-color="#38A762"/>
<stop offset="1" stop-color="#3FA1D5"/>
</linearGradient>
<clipPath id="clip0">
<rect width="78.2542" height="81" fill="white"/>
</clipPath>
</defs>
</svg>
