<svg width="399" height="81" viewBox="0 0 399 81" fill="none" xmlns="http://www.w3.org/2000/svg">
<g clip-path="url(#clip0)">
<path d="M24.1381 75.5351C21.9968 74.7544 20.0502 73.5833 18.1036 72.4122C16.157 71.2411 14.405 69.6797 12.653 68.3134C9.34379 65.1905 6.42386 61.4821 4.28257 57.5784C3.30926 55.6266 2.33595 53.4796 1.5573 51.3327C0.778649 49.1857 0.389325 46.8435 0 44.6965C0 42.1592 0 39.817 0 37.4748C0 36.3037 0.194662 35.1327 0.194662 34.1568C0.389325 32.9857 0.583987 31.8146 0.778649 30.8387C0.973311 29.6676 1.36264 28.6917 1.5573 27.5206C1.94662 26.3495 2.33595 25.3736 2.72527 24.3977C3.50392 22.2507 4.67189 20.2989 5.83987 18.3471C8.17582 14.4435 11.2904 11.1254 14.7943 8.3929C18.2983 5.66037 22.3862 3.51338 26.6687 2.14712C27.642 1.75676 28.81 1.56158 29.978 1.17122C31.146 0.976035 32.1193 0.780855 33.2873 0.585674C34.4552 0.390493 35.4285 0.390493 36.5965 0.195312C37.1805 0.195312 37.7645 0.195312 38.3485 0.195312C38.5431 0.195312 38.9325 0.195312 39.1271 0.195312H39.9058C40.1004 0.195312 40.2951 0.195312 40.6844 0.195312C21.6075 0.976035 6.61852 16.7857 6.61852 36.1086C6.61852 39.4266 7.00784 42.7447 7.98115 45.8676C8.17582 46.8435 8.56514 47.8194 8.7598 48.7953C9.34379 50.5519 10.1224 52.3086 11.0957 53.87C12.8477 57.1881 15.1837 60.1158 18.1036 62.458C18.2983 62.6531 18.6876 63.0435 18.8822 63.2387C20.0502 64.2146 21.2182 64.9953 22.3862 65.776C23.9435 66.7519 25.6954 67.5327 27.2527 68.3134C28.4207 68.7038 29.7833 69.2893 30.9513 69.4845C32.1193 69.0941 33.2872 68.5086 34.8445 67.5327C41.8524 61.4821 52.9481 68.8989 60.1506 64.9953C60.54 64.8001 60.9293 64.605 61.5133 64.8001C61.9026 64.9953 62.4866 65.1905 62.2919 65.9712C62.2919 66.1664 62.2919 66.3616 62.2919 66.3616C60.9293 72.0218 54.1161 72.0218 49.6389 71.4363C48.2762 71.2411 47.3029 71.0459 46.5243 71.0459C45.1616 70.8507 44.1883 71.4363 44.383 72.217C44.383 72.9977 45.3563 73.9736 47.6923 74.5592C63.8492 77.4869 73.5823 57.3833 77.8649 61.8724C79.6169 64.6049 58.9827 92.711 24.1381 75.5351Z" fill="url(#paint0_linear)"/>
<path d="M69.6891 59.5301C73.1931 54.2602 75.1397 47.8193 75.1397 40.7928C75.1397 22.4458 61.124 7.61203 43.9937 7.61203C26.8634 7.61203 12.8478 22.4458 12.8478 40.7928C12.8478 47.8193 14.7944 54.2602 18.2983 59.5301C13.0424 53.2843 9.73315 45.2819 9.73315 36.694C9.73315 17.5662 25.1115 2.14697 43.9937 2.14697C62.876 2.14697 78.2543 17.5663 78.2543 36.4988C78.2543 45.2819 75.1397 53.2843 69.6891 59.5301Z" fill="url(#paint1_linear)"/>
<path d="M60.9293 32.2052H52.1695C51.1962 32.2052 50.4176 31.4245 50.4176 30.4486V21.8606C50.4176 20.8847 49.6389 20.104 48.6656 20.104H38.9325C37.9592 20.104 37.1806 20.8847 37.1806 21.8606V30.4486C37.1806 31.4245 36.4019 32.2052 35.4286 32.2052H27.0581C26.0848 32.2052 25.3062 32.9859 25.3062 33.9618V43.9161C25.3062 44.892 26.0848 45.6727 27.0581 45.6727H35.4286C36.4019 45.6727 37.1806 46.4534 37.1806 47.4293V56.0173C37.1806 56.9932 37.9592 57.7739 38.9325 57.7739C41.4631 57.7739 46.3297 57.7739 48.8603 57.7739C49.8336 57.7739 50.6122 56.9932 50.6122 56.0173V47.4293C50.6122 46.4534 51.3909 45.6727 52.3642 45.6727H61.124C62.0973 45.6727 62.876 44.892 62.876 43.9161V33.9618C62.6813 32.7908 61.9027 32.2052 60.9293 32.2052Z" fill="url(#paint2_linear)"/>
</g>
<g filter="url(#filter0_d)">
<path d="M97.8846 59.8337H103.584L103.994 53.8477H121.952V59.8337H127.241L128.061 48.1487H124.617V25.1477H103.748V28.5097C103.748 38.3087 102.723 43.1877 100.591 48.1487H97.8846V59.8337ZM118.303 30.8467V48.1487H107.233C108.873 44.1717 109.816 39.8257 109.816 33.7577V30.8467H118.303ZM132.469 53.8477H154.322V48.2307H138.742V42.2037H152.272V36.5867H138.742V30.7647H154.117V25.1477H132.469V53.8477ZM170.145 24.6557C164.692 24.6557 161.248 26.5827 158.583 29.3707L161.904 33.3887C163.831 31.4207 166.127 30.2317 169.653 30.2317C172.4 30.2317 174.286 31.4207 174.286 33.4297C174.286 35.6027 172.482 36.7507 169.161 36.7507H165.922V41.9987H169.243C172.523 41.9987 174.942 42.9827 174.942 45.3607C174.942 47.5747 172.769 48.8047 170.104 48.8047C166.373 48.8047 163.298 47.4517 160.961 45.1557L157.599 49.5427C160.674 52.6587 164.323 54.3397 170.35 54.3397C177.033 54.3397 181.256 50.6907 181.256 45.7297C181.256 42.0807 178.96 39.9487 175.885 38.9647C178.427 37.8577 180.518 35.9307 180.518 32.3637C180.518 27.8947 176.295 24.6557 170.145 24.6557ZM211.485 25.1477H205.622L192.994 43.9667V25.1477H186.762V53.8477H192.707L205.253 35.0287V53.8477H211.485V25.1477ZM218.393 53.8477H224.707V42.3267H236.351V53.8477H242.665V25.1477H236.351V36.5047H224.707V25.1477H218.393V53.8477ZM256.227 53.8477H262.541V30.9697H271.274V25.1477H247.494V30.9697H256.227V53.8477ZM276.13 53.8477H297.983V48.2307H282.403V42.2037H295.933V36.5867H282.403V30.7647H297.778V25.1477H276.13V53.8477ZM303.596 53.8477H309.91V45.0737L313.231 41.6297L322.128 53.8477H329.713L317.495 37.3247L329.18 25.1477H321.554L309.91 37.6937V25.1477H303.596V53.8477ZM346.994 54.3397C352.529 54.3397 355.809 52.6177 358.761 49.4607L354.743 45.1557C352.488 47.2057 350.479 48.5177 347.199 48.5177C342.279 48.5177 338.876 44.4177 338.876 39.4977C338.876 34.4957 342.361 30.4777 347.199 30.4777C350.479 30.4777 352.365 31.6667 354.579 33.6757L358.351 29.3297C355.686 26.7057 352.652 24.6557 347.24 24.6557C338.425 24.6557 332.275 31.3387 332.275 39.4977C332.275 47.8207 338.548 54.3397 346.994 54.3397Z" fill="#3AA48C"/>
<path d="M97.8846 59.8337H96.8846V60.8337H97.8846V59.8337ZM103.584 59.8337V60.8337H104.517L104.581 59.902L103.584 59.8337ZM103.994 53.8477V52.8477H103.06L102.996 53.7793L103.994 53.8477ZM121.952 53.8477H122.952V52.8477H121.952V53.8477ZM121.952 59.8337H120.952V60.8337H121.952V59.8337ZM127.241 59.8337V60.8337H128.173L128.238 59.9037L127.241 59.8337ZM128.061 48.1487L129.058 48.2187L129.133 47.1487H128.061V48.1487ZM124.617 48.1487H123.617V49.1487H124.617V48.1487ZM124.617 25.1477H125.617V24.1477H124.617V25.1477ZM103.748 25.1477V24.1477H102.748V25.1477H103.748ZM100.591 48.1487V49.1487H101.249L101.509 48.5435L100.591 48.1487ZM97.8846 48.1487V47.1487H96.8846V48.1487H97.8846ZM118.303 30.8467H119.303V29.8467H118.303V30.8467ZM118.303 48.1487V49.1487H119.303V48.1487H118.303ZM107.233 48.1487L106.308 47.7674L105.739 49.1487H107.233V48.1487ZM109.816 30.8467V29.8467H108.816V30.8467H109.816ZM97.8846 60.8337H103.584V58.8337H97.8846V60.8337ZM104.581 59.902L104.991 53.916L102.996 53.7793L102.586 59.7653L104.581 59.902ZM103.994 54.8477H121.952V52.8477H103.994V54.8477ZM120.952 53.8477V59.8337H122.952V53.8477H120.952ZM121.952 60.8337H127.241V58.8337H121.952V60.8337ZM128.238 59.9037L129.058 48.2187L127.063 48.0787L126.243 59.7637L128.238 59.9037ZM128.061 47.1487H124.617V49.1487H128.061V47.1487ZM125.617 48.1487V25.1477H123.617V48.1487H125.617ZM124.617 24.1477H103.748V26.1477H124.617V24.1477ZM102.748 25.1477V28.5097H104.748V25.1477H102.748ZM102.748 28.5097C102.748 38.223 101.733 42.9566 99.6719 47.7538L101.509 48.5435C103.712 43.4188 104.748 38.3943 104.748 28.5097H102.748ZM100.591 47.1487H97.8846V49.1487H100.591V47.1487ZM96.8846 48.1487V59.8337H98.8846V48.1487H96.8846ZM117.303 30.8467V48.1487H119.303V30.8467H117.303ZM118.303 47.1487H107.233V49.1487H118.303V47.1487ZM108.157 48.5299C109.852 44.4203 110.816 39.9431 110.816 33.7577H108.816C108.816 39.7082 107.893 43.9231 106.308 47.7674L108.157 48.5299ZM110.816 33.7577V30.8467H108.816V33.7577H110.816ZM109.816 31.8467H118.303V29.8467H109.816V31.8467ZM132.469 53.8477H131.469V54.8477H132.469V53.8477ZM154.322 53.8477V54.8477H155.322V53.8477H154.322ZM154.322 48.2307H155.322V47.2307H154.322V48.2307ZM138.742 48.2307H137.742V49.2307H138.742V48.2307ZM138.742 42.2037V41.2037H137.742V42.2037H138.742ZM152.272 42.2037V43.2037H153.272V42.2037H152.272ZM152.272 36.5867H153.272V35.5867H152.272V36.5867ZM138.742 36.5867H137.742V37.5867H138.742V36.5867ZM138.742 30.7647V29.7647H137.742V30.7647H138.742ZM154.117 30.7647V31.7647H155.117V30.7647H154.117ZM154.117 25.1477H155.117V24.1477H154.117V25.1477ZM132.469 25.1477V24.1477H131.469V25.1477H132.469ZM132.469 54.8477H154.322V52.8477H132.469V54.8477ZM155.322 53.8477V48.2307H153.322V53.8477H155.322ZM154.322 47.2307H138.742V49.2307H154.322V47.2307ZM139.742 48.2307V42.2037H137.742V48.2307H139.742ZM138.742 43.2037H152.272V41.2037H138.742V43.2037ZM153.272 42.2037V36.5867H151.272V42.2037H153.272ZM152.272 35.5867H138.742V37.5867H152.272V35.5867ZM139.742 36.5867V30.7647H137.742V36.5867H139.742ZM138.742 31.7647H154.117V29.7647H138.742V31.7647ZM155.117 30.7647V25.1477H153.117V30.7647H155.117ZM154.117 24.1477H132.469V26.1477H154.117V24.1477ZM131.469 25.1477V53.8477H133.469V25.1477H131.469ZM158.583 29.3707L157.86 28.6797L157.246 29.3224L157.812 30.0077L158.583 29.3707ZM161.904 33.3887L161.133 34.0257L161.841 34.8822L162.619 34.0883L161.904 33.3887ZM165.922 36.7507V35.7507H164.922V36.7507H165.922ZM165.922 41.9987H164.922V42.9987H165.922V41.9987ZM160.961 45.1557L161.662 44.4423L160.855 43.6498L160.167 44.5474L160.961 45.1557ZM157.599 49.5427L156.805 48.9344L156.276 49.6254L156.887 50.2451L157.599 49.5427ZM175.885 38.9647L175.486 38.0478L173.052 39.1079L175.58 39.9171L175.885 38.9647ZM170.145 23.6557C164.401 23.6557 160.701 25.7078 157.86 28.6797L159.306 30.0616C161.795 27.4575 164.983 25.6557 170.145 25.6557V23.6557ZM157.812 30.0077L161.133 34.0257L162.675 32.7516L159.354 28.7336L157.812 30.0077ZM162.619 34.0883C164.368 32.3015 166.411 31.2317 169.653 31.2317V29.2317C165.844 29.2317 163.294 30.5398 161.19 32.689L162.619 34.0883ZM169.653 31.2317C170.899 31.2317 171.842 31.5038 172.442 31.9069C173.005 32.2862 173.286 32.7869 173.286 33.4297H175.286C175.286 32.0634 174.624 30.9651 173.558 30.2476C172.527 29.554 171.154 29.2317 169.653 29.2317V31.2317ZM173.286 33.4297C173.286 34.1884 172.998 34.6966 172.427 35.0647C171.792 35.4741 170.734 35.7507 169.161 35.7507V37.7507C170.91 37.7507 172.414 37.4532 173.511 36.7454C174.673 35.9962 175.286 34.8439 175.286 33.4297H173.286ZM169.161 35.7507H165.922V37.7507H169.161V35.7507ZM164.922 36.7507V41.9987H166.922V36.7507H164.922ZM165.922 42.9987H169.243V40.9987H165.922V42.9987ZM169.243 42.9987C170.811 42.9987 172.045 43.2382 172.851 43.6695C173.594 44.0674 173.942 44.5974 173.942 45.3607H175.942C175.942 43.7459 175.081 42.5949 173.795 41.9063C172.571 41.2511 170.956 40.9987 169.243 40.9987V42.9987ZM173.942 45.3607C173.942 46.0885 173.605 46.6558 172.968 47.0809C172.299 47.5264 171.299 47.8047 170.104 47.8047V49.8047C171.574 49.8047 172.993 49.4679 174.077 48.745C175.192 48.0015 175.942 46.8468 175.942 45.3607H173.942ZM170.104 47.8047C166.636 47.8047 163.812 46.5549 161.662 44.4423L160.26 45.869C162.784 48.3484 166.111 49.8047 170.104 49.8047V47.8047ZM160.167 44.5474L156.805 48.9344L158.393 50.1509L161.755 45.7639L160.167 44.5474ZM156.887 50.2451C160.17 53.5714 164.085 55.3397 170.35 55.3397V53.3397C164.561 53.3397 161.178 51.7459 158.311 48.8402L156.887 50.2451ZM170.35 55.3397C173.867 55.3397 176.832 54.3792 178.939 52.672C181.06 50.9531 182.256 48.517 182.256 45.7297H180.256C180.256 47.9033 179.341 49.7722 177.68 51.1181C176.004 52.4756 173.516 53.3397 170.35 53.3397V55.3397ZM182.256 45.7297C182.256 43.6782 181.604 41.998 180.481 40.695C179.372 39.4072 177.852 38.544 176.19 38.0122L175.58 39.9171C176.994 40.3694 178.159 41.0641 178.966 42.0006C179.76 42.9218 180.256 44.1322 180.256 45.7297H182.256ZM176.284 39.8815C177.651 39.2862 178.966 38.4417 179.94 37.2058C180.927 35.9538 181.518 34.3592 181.518 32.3637H179.518C179.518 33.9351 179.063 35.0875 178.37 35.9675C177.663 36.8637 176.661 37.5361 175.486 38.0478L176.284 39.8815ZM181.518 32.3637C181.518 27.0947 176.562 23.6557 170.145 23.6557V25.6557C176.029 25.6557 179.518 28.6947 179.518 32.3637H181.518ZM211.485 25.1477H212.485V24.1477H211.485V25.1477ZM205.622 25.1477V24.1477H205.089L204.792 24.5905L205.622 25.1477ZM192.994 43.9667H191.994V47.2516L193.825 44.5239L192.994 43.9667ZM192.994 25.1477H193.994V24.1477H192.994V25.1477ZM186.762 25.1477V24.1477H185.762V25.1477H186.762ZM186.762 53.8477H185.762V54.8477H186.762V53.8477ZM192.707 53.8477V54.8477H193.243L193.539 54.4024L192.707 53.8477ZM205.253 35.0287H206.253V31.7259L204.421 34.474L205.253 35.0287ZM205.253 53.8477H204.253V54.8477H205.253V53.8477ZM211.485 53.8477V54.8477H212.485V53.8477H211.485ZM211.485 24.1477H205.622V26.1477H211.485V24.1477ZM204.792 24.5905L192.164 43.4095L193.825 44.5239L206.453 25.7049L204.792 24.5905ZM193.994 43.9667V25.1477H191.994V43.9667H193.994ZM192.994 24.1477H186.762V26.1477H192.994V24.1477ZM185.762 25.1477V53.8477H187.762V25.1477H185.762ZM186.762 54.8477H192.707V52.8477H186.762V54.8477ZM193.539 54.4024L206.085 35.5834L204.421 34.474L191.875 53.293L193.539 54.4024ZM204.253 35.0287V53.8477H206.253V35.0287H204.253ZM205.253 54.8477H211.485V52.8477H205.253V54.8477ZM212.485 53.8477V25.1477H210.485V53.8477H212.485ZM218.393 53.8477H217.393V54.8477H218.393V53.8477ZM224.707 53.8477V54.8477H225.707V53.8477H224.707ZM224.707 42.3267V41.3267H223.707V42.3267H224.707ZM236.351 42.3267H237.351V41.3267H236.351V42.3267ZM236.351 53.8477H235.351V54.8477H236.351V53.8477ZM242.665 53.8477V54.8477H243.665V53.8477H242.665ZM242.665 25.1477H243.665V24.1477H242.665V25.1477ZM236.351 25.1477V24.1477H235.351V25.1477H236.351ZM236.351 36.5047V37.5047H237.351V36.5047H236.351ZM224.707 36.5047H223.707V37.5047H224.707V36.5047ZM224.707 25.1477H225.707V24.1477H224.707V25.1477ZM218.393 25.1477V24.1477H217.393V25.1477H218.393ZM218.393 54.8477H224.707V52.8477H218.393V54.8477ZM225.707 53.8477V42.3267H223.707V53.8477H225.707ZM224.707 43.3267H236.351V41.3267H224.707V43.3267ZM235.351 42.3267V53.8477H237.351V42.3267H235.351ZM236.351 54.8477H242.665V52.8477H236.351V54.8477ZM243.665 53.8477V25.1477H241.665V53.8477H243.665ZM242.665 24.1477H236.351V26.1477H242.665V24.1477ZM235.351 25.1477V36.5047H237.351V25.1477H235.351ZM236.351 35.5047H224.707V37.5047H236.351V35.5047ZM225.707 36.5047V25.1477H223.707V36.5047H225.707ZM224.707 24.1477H218.393V26.1477H224.707V24.1477ZM217.393 25.1477V53.8477H219.393V25.1477H217.393ZM256.227 53.8477H255.227V54.8477H256.227V53.8477ZM262.541 53.8477V54.8477H263.541V53.8477H262.541ZM262.541 30.9697V29.9697H261.541V30.9697H262.541ZM271.274 30.9697V31.9697H272.274V30.9697H271.274ZM271.274 25.1477H272.274V24.1477H271.274V25.1477ZM247.494 25.1477V24.1477H246.494V25.1477H247.494ZM247.494 30.9697H246.494V31.9697H247.494V30.9697ZM256.227 30.9697H257.227V29.9697H256.227V30.9697ZM256.227 54.8477H262.541V52.8477H256.227V54.8477ZM263.541 53.8477V30.9697H261.541V53.8477H263.541ZM262.541 31.9697H271.274V29.9697H262.541V31.9697ZM272.274 30.9697V25.1477H270.274V30.9697H272.274ZM271.274 24.1477H247.494V26.1477H271.274V24.1477ZM246.494 25.1477V30.9697H248.494V25.1477H246.494ZM247.494 31.9697H256.227V29.9697H247.494V31.9697ZM255.227 30.9697V53.8477H257.227V30.9697H255.227ZM276.13 53.8477H275.13V54.8477H276.13V53.8477ZM297.983 53.8477V54.8477H298.983V53.8477H297.983ZM297.983 48.2307H298.983V47.2307H297.983V48.2307ZM282.403 48.2307H281.403V49.2307H282.403V48.2307ZM282.403 42.2037V41.2037H281.403V42.2037H282.403ZM295.933 42.2037V43.2037H296.933V42.2037H295.933ZM295.933 36.5867H296.933V35.5867H295.933V36.5867ZM282.403 36.5867H281.403V37.5867H282.403V36.5867ZM282.403 30.7647V29.7647H281.403V30.7647H282.403ZM297.778 30.7647V31.7647H298.778V30.7647H297.778ZM297.778 25.1477H298.778V24.1477H297.778V25.1477ZM276.13 25.1477V24.1477H275.13V25.1477H276.13ZM276.13 54.8477H297.983V52.8477H276.13V54.8477ZM298.983 53.8477V48.2307H296.983V53.8477H298.983ZM297.983 47.2307H282.403V49.2307H297.983V47.2307ZM283.403 48.2307V42.2037H281.403V48.2307H283.403ZM282.403 43.2037H295.933V41.2037H282.403V43.2037ZM296.933 42.2037V36.5867H294.933V42.2037H296.933ZM295.933 35.5867H282.403V37.5867H295.933V35.5867ZM283.403 36.5867V30.7647H281.403V36.5867H283.403ZM282.403 31.7647H297.778V29.7647H282.403V31.7647ZM298.778 30.7647V25.1477H296.778V30.7647H298.778ZM297.778 24.1477H276.13V26.1477H297.778V24.1477ZM275.13 25.1477V53.8477H277.13V25.1477H275.13ZM303.596 53.8477H302.596V54.8477H303.596V53.8477ZM309.91 53.8477V54.8477H310.91V53.8477H309.91ZM309.91 45.0737L309.191 44.3795L308.91 44.6701V45.0737H309.91ZM313.231 41.6297L314.04 41.041L313.338 40.0779L312.512 40.9355L313.231 41.6297ZM322.128 53.8477L321.32 54.4363L321.619 54.8477H322.128V53.8477ZM329.713 53.8477V54.8477H331.697L330.517 53.2531L329.713 53.8477ZM317.495 37.3247L316.774 36.6323L316.19 37.2409L316.691 37.9192L317.495 37.3247ZM329.18 25.1477L329.902 25.84L331.526 24.1477H329.18V25.1477ZM321.554 25.1477V24.1477H321.118L320.821 24.4674L321.554 25.1477ZM309.91 37.6937H308.91V40.2411L310.643 38.3739L309.91 37.6937ZM309.91 25.1477H310.91V24.1477H309.91V25.1477ZM303.596 25.1477V24.1477H302.596V25.1477H303.596ZM303.596 54.8477H309.91V52.8477H303.596V54.8477ZM310.91 53.8477V45.0737H308.91V53.8477H310.91ZM310.63 45.7678L313.951 42.3238L312.512 40.9355L309.191 44.3795L310.63 45.7678ZM312.423 42.2183L321.32 54.4363L322.937 53.259L314.04 41.041L312.423 42.2183ZM322.128 54.8477H329.713V52.8477H322.128V54.8477ZM330.517 53.2531L318.299 36.7301L316.691 37.9192L328.909 54.4422L330.517 53.2531ZM318.217 38.017L329.902 25.84L328.459 24.4553L316.774 36.6323L318.217 38.017ZM329.18 24.1477H321.554V26.1477H329.18V24.1477ZM320.821 24.4674L309.177 37.0134L310.643 38.3739L322.287 25.8279L320.821 24.4674ZM310.91 37.6937V25.1477H308.91V37.6937H310.91ZM309.91 24.1477H303.596V26.1477H309.91V24.1477ZM302.596 25.1477V53.8477H304.596V25.1477H302.596ZM358.761 49.4607L359.491 50.1437L360.129 49.4613L359.492 48.7783L358.761 49.4607ZM354.743 45.1557L355.474 44.4733L354.8 43.7518L354.07 44.4157L354.743 45.1557ZM354.579 33.6757L353.907 34.4162L354.664 35.1032L355.334 34.3311L354.579 33.6757ZM358.351 29.3297L359.106 29.9851L359.721 29.2759L359.052 28.6171L358.351 29.3297ZM346.994 55.3397C349.867 55.3397 352.213 54.8922 354.247 53.9998C356.283 53.1068 357.948 51.7935 359.491 50.1437L358.03 48.7777C356.621 50.2848 355.17 51.411 353.444 52.1683C351.716 52.9261 349.655 53.3397 346.994 53.3397V55.3397ZM359.492 48.7783L355.474 44.4733L354.012 45.838L358.03 50.143L359.492 48.7783ZM354.07 44.4157C351.898 46.3903 350.121 47.5177 347.199 47.5177V49.5177C350.837 49.5177 353.077 48.021 355.415 45.8956L354.07 44.4157ZM347.199 47.5177C342.934 47.5177 339.876 43.974 339.876 39.4977H337.876C337.876 44.8614 341.624 49.5177 347.199 49.5177V47.5177ZM339.876 39.4977C339.876 34.9524 343.004 31.4777 347.199 31.4777V29.4777C341.717 29.4777 337.876 34.0389 337.876 39.4977H339.876ZM347.199 31.4777C348.707 31.4777 349.85 31.7488 350.86 32.2271C351.886 32.7129 352.826 33.4352 353.907 34.4162L355.251 32.9351C354.118 31.9071 353.007 31.0305 351.716 30.4195C350.41 29.801 348.97 29.4777 347.199 29.4777V31.4777ZM355.334 34.3311L359.106 29.9851L357.595 28.6742L353.823 33.0202L355.334 34.3311ZM359.052 28.6171C357.678 27.2643 356.162 26.0124 354.255 25.1055C352.339 24.1952 350.079 23.6557 347.24 23.6557V25.6557C349.812 25.6557 351.775 26.1411 353.396 26.9118C355.024 27.6859 356.358 28.7711 357.649 30.0422L359.052 28.6171ZM347.24 23.6557C337.854 23.6557 331.275 30.8046 331.275 39.4977H333.275C333.275 31.8727 338.995 25.6557 347.24 25.6557V23.6557ZM331.275 39.4977C331.275 48.3564 337.979 55.3397 346.994 55.3397V53.3397C339.116 53.3397 333.275 47.2849 333.275 39.4977H331.275Z" fill="black"/>
</g>
<defs>
<filter id="filter0_d" x="92.8846" y="23.6558" width="271.244" height="45.178" filterUnits="userSpaceOnUse" color-interpolation-filters="sRGB">
<feFlood flood-opacity="0" result="BackgroundImageFix"/>
<feColorMatrix in="SourceAlpha" type="matrix" values="0 0 0 0 0 0 0 0 0 0 0 0 0 0 0 0 0 0 127 0"/>
<feOffset dy="4"/>
<feGaussianBlur stdDeviation="2"/>
<feColorMatrix type="matrix" values="0 0 0 0 0 0 0 0 0 0 0 0 0 0 0 0 0 0 0.25 0"/>
<feBlend mode="normal" in2="BackgroundImageFix" result="effect1_dropShadow"/>
<feBlend mode="normal" in="SourceGraphic" in2="effect1_dropShadow" result="shape"/>
</filter>
<linearGradient id="paint0_linear" x1="10.3109" y1="-6.44396" x2="54.6237" y2="87.982" gradientUnits="userSpaceOnUse">
<stop offset="0.0195531" stop-color="#3FA1D5"/>
<stop offset="0.4839" stop-color="#31A666"/>
<stop offset="1" stop-color="#D8D70C"/>
</linearGradient>
<linearGradient id="paint1_linear" x1="9.71797" y1="30.8235" x2="78.3296" y2="30.8235" gradientUnits="userSpaceOnUse">
<stop offset="0.00905059" stop-color="#31A666"/>
<stop offset="1" stop-color="#D8D70C"/>
</linearGradient>
<linearGradient id="paint2_linear" x1="61.824" y1="62.1354" x2="18.4836" y2="5.51634" gradientUnits="userSpaceOnUse">
<stop stop-color="#38A762"/>
<stop offset="1" stop-color="#3FA1D5"/>
</linearGradient>
<clipPath id="clip0">
<rect width="78.2542" height="81" fill="white"/>
</clipPath>
</defs>
</svg>
