<svg width="637" height="654" viewBox="0 0 637 654" fill="none" xmlns="http://www.w3.org/2000/svg">
<path fill-rule="evenodd" clip-rule="evenodd" d="M196.488 609.809C179.058 603.496 163.212 594.026 147.367 584.557L147.366 584.556C135.683 577.573 124.861 568.875 114.265 560.359L114.264 560.358C110.49 557.324 106.744 554.313 102.998 551.411C76.0597 526.158 52.2911 496.17 34.8607 464.604C26.9378 448.821 19.0149 431.459 12.6766 414.098C6.82304 398.064 3.67242 380.684 0.728517 364.445L0.728482 364.444L0.728084 364.442C0.484446 363.098 0.242223 361.762 0 360.435V302.037C0 297.087 0.433054 292.136 0.846383 287.411C1.2237 283.098 1.58458 278.972 1.58458 275.206C3.16915 265.736 4.75373 256.266 6.33831 248.375C7.1306 243.64 8.31903 239.3 9.50747 234.959C10.6959 230.619 11.8843 226.278 12.6766 221.543C15.8458 212.074 19.0149 204.182 22.1841 196.29C28.5224 178.929 38.0299 163.146 47.5373 147.363C66.5523 115.796 91.9055 88.9651 120.428 66.8688C148.95 44.7724 182.226 27.4109 217.087 16.3627C221.504 14.6031 226.413 13.3339 231.539 12.0084L231.539 12.0084C235.61 10.956 239.817 9.86815 244.025 8.47116C248.779 7.682 253.136 6.89284 257.494 6.10369L257.495 6.1035C261.852 5.3144 266.209 4.52531 270.963 3.73622C275.716 2.94706 280.074 2.55248 284.432 2.1579C288.789 1.76333 293.147 1.36875 297.901 0.57959H312.162H318.5H324.838H331.177C175.888 6.89284 53.8756 134.736 53.8756 290.989C53.8756 317.821 57.0448 344.652 64.9677 369.905C65.76 373.851 66.9484 377.797 68.1368 381.742C69.3253 385.688 70.5137 389.634 71.306 393.58C76.0597 407.784 82.398 421.989 90.3209 434.616C104.582 461.447 123.597 485.122 147.366 504.062L153.704 510.375C163.211 518.266 172.718 524.579 182.225 530.892L182.226 530.893C191.782 536.841 202.237 541.893 212.236 546.724L212.237 546.724L212.238 546.725C215.503 548.303 218.72 549.857 221.841 551.411C224.504 552.295 227.291 553.303 230.133 554.331C237.438 556.973 245.103 559.745 251.948 560.881C261.455 557.724 270.963 552.989 283.639 545.098C314.715 518.444 355.667 524.109 395.991 529.687C429.687 534.349 462.944 538.95 489.634 524.58C492.804 523.001 495.973 521.423 500.726 523.001C501.008 523.141 501.302 523.282 501.602 523.425C504.69 524.897 508.509 526.718 507.065 532.471V535.628C495.973 581.399 440.513 581.399 404.067 576.664C401.096 576.241 398.351 575.818 395.804 575.426C388.844 574.353 383.354 573.507 378.714 573.507C367.622 571.929 359.699 576.664 361.284 582.977C361.284 589.291 369.207 597.182 388.221 601.917C465.727 615.869 525.073 565.142 567.88 528.552C597.713 503.052 619.514 484.418 633.831 499.327C648.092 521.423 480.127 748.7 196.488 609.809ZM567.279 480.387C595.801 437.772 611.647 385.688 611.647 328.868C611.647 180.507 497.557 60.5552 358.115 60.5552C218.672 60.5552 104.582 180.507 104.582 328.868C104.582 385.688 120.428 437.772 148.95 480.387C106.167 429.88 79.229 365.17 79.229 295.724C79.229 141.049 204.411 16.3624 358.115 16.3624C511.818 16.3624 637 141.049 637 294.146C637 365.17 611.647 429.88 567.279 480.387ZM424.667 259.422H495.973C503.896 259.422 510.234 264.157 511.819 273.627V354.121C511.819 362.012 505.48 368.325 497.557 368.325H426.251C418.329 368.325 411.99 374.639 411.99 382.53V451.976C411.99 459.868 405.652 466.181 397.729 466.181H316.916C308.993 466.181 302.654 459.868 302.654 451.976V382.53C302.654 374.639 296.316 368.325 288.393 368.325H220.256C212.334 368.325 205.995 362.012 205.995 354.121V273.627C205.995 265.735 212.334 259.422 220.256 259.422H288.393C296.316 259.422 302.654 253.109 302.654 245.217V175.771C302.654 167.88 308.993 161.566 316.916 161.566H396.145C404.067 161.566 410.406 167.88 410.406 175.771V245.217C410.406 253.109 416.744 259.422 424.667 259.422Z" fill="url(#paint0_linear)" fill-opacity="0.2"/>
<defs>
<linearGradient id="paint0_linear" x1="503.255" y1="501.45" x2="153.399" y2="41.3685" gradientUnits="userSpaceOnUse">
<stop stop-color="#38A762"/>
<stop offset="1" stop-color="#3FA1D5"/>
</linearGradient>
</defs>
</svg>
